<?xml version="1.0" encoding="UTF-8" standalone="no"?>
<!-- Created with Inkscape (http://www.inkscape.org/) -->

<svg
   xmlns:dc="http://purl.org/dc/elements/1.1/"
   xmlns:cc="http://creativecommons.org/ns#"
   xmlns:rdf="http://www.w3.org/1999/02/22-rdf-syntax-ns#"
   xmlns:svg="http://www.w3.org/2000/svg"
   xmlns="http://www.w3.org/2000/svg"
   xmlns:sodipodi="http://sodipodi.sourceforge.net/DTD/sodipodi-0.dtd"
   xmlns:inkscape="http://www.inkscape.org/namespaces/inkscape"
   width="1052.3622"
   height="744.09448"
   id="svg4184"
   version="1.1"
   inkscape:version="0.47 r22583"
   sodipodi:docname="black.svg">
  <defs
     id="defs4186">
    <inkscape:perspective
       sodipodi:type="inkscape:persp3d"
       inkscape:vp_x="0 : 526.18109 : 1"
       inkscape:vp_y="0 : 1000 : 0"
       inkscape:vp_z="744.09448 : 526.18109 : 1"
       inkscape:persp3d-origin="372.04724 : 350.78739 : 1"
       id="perspective4192" />
    <inkscape:perspective
       id="perspective4225"
       inkscape:persp3d-origin="0.5 : 0.33333333 : 1"
       inkscape:vp_z="1 : 0.5 : 1"
       inkscape:vp_y="0 : 1000 : 0"
       inkscape:vp_x="0 : 0.5 : 1"
       sodipodi:type="inkscape:persp3d" />
    <inkscape:perspective
       id="perspective4259"
       inkscape:persp3d-origin="0.5 : 0.33333333 : 1"
       inkscape:vp_z="1 : 0.5 : 1"
       inkscape:vp_y="0 : 1000 : 0"
       inkscape:vp_x="0 : 0.5 : 1"
       sodipodi:type="inkscape:persp3d" />
    <inkscape:perspective
       id="perspective4833"
       inkscape:persp3d-origin="0.5 : 0.33333333 : 1"
       inkscape:vp_z="1 : 0.5 : 1"
       inkscape:vp_y="0 : 1000 : 0"
       inkscape:vp_x="0 : 0.5 : 1"
       sodipodi:type="inkscape:persp3d" />
    <inkscape:perspective
       id="perspective4867"
       inkscape:persp3d-origin="0.5 : 0.33333333 : 1"
       inkscape:vp_z="1 : 0.5 : 1"
       inkscape:vp_y="0 : 1000 : 0"
       inkscape:vp_x="0 : 0.5 : 1"
       sodipodi:type="inkscape:persp3d" />
    <inkscape:perspective
       id="perspective4867-3"
       inkscape:persp3d-origin="0.5 : 0.33333333 : 1"
       inkscape:vp_z="1 : 0.5 : 1"
       inkscape:vp_y="0 : 1000 : 0"
       inkscape:vp_x="0 : 0.5 : 1"
       sodipodi:type="inkscape:persp3d" />
    <inkscape:perspective
       id="perspective4867-0"
       inkscape:persp3d-origin="0.5 : 0.33333333 : 1"
       inkscape:vp_z="1 : 0.5 : 1"
       inkscape:vp_y="0 : 1000 : 0"
       inkscape:vp_x="0 : 0.5 : 1"
       sodipodi:type="inkscape:persp3d" />
  </defs>
  <sodipodi:namedview
     id="base"
     pagecolor="#ffffff"
     bordercolor="#666666"
     borderopacity="1.0"
     inkscape:pageopacity="0.0"
     inkscape:pageshadow="2"
     inkscape:zoom="0.7"
     inkscape:cx="488.24881"
     inkscape:cy="292.86436"
     inkscape:document-units="mm"
     inkscape:current-layer="layer1"
     showgrid="true"
     inkscape:window-width="1366"
     inkscape:window-height="716"
     inkscape:window-x="0"
     inkscape:window-y="0"
     inkscape:window-maximized="1">
    <inkscape:grid
       type="xygrid"
       id="grid4194"
       empspacing="5"
       visible="true"
       enabled="true"
       snapvisiblegridlinesonly="true"
       units="mm"
       spacingx="1mm"
       spacingy="1mm" />
  </sodipodi:namedview>
  <metadata
     id="metadata4189">
    <rdf:RDF>
      <cc:Work
         rdf:about="">
        <dc:format>image/svg+xml</dc:format>
        <dc:type
           rdf:resource="http://purl.org/dc/dcmitype/StillImage" />
        <dc:title></dc:title>
      </cc:Work>
    </rdf:RDF>
  </metadata>
  <g
     inkscape:label="Layer 1"
     inkscape:groupmode="layer"
     id="layer1"
     transform="translate(0,-308.2677)">
    <path
       id="rect3608-4-2"
       style="opacity:0.90000000000000002;fill:none;stroke:#ff0000;stroke-width:0.35433070999999999;stroke-miterlimit:4;stroke-opacity:1;stroke-dashoffset:0;display:inline;stroke-dasharray:none"
       d="m 375.59054,1031.1023 0,21.2598 49.6063,0 c 7.08661,0 14.17323,-7.0866 14.17323,-14.1732 l 0,-216.14168 c 0,-7.08661 -7.08662,-14.17323 -14.17323,-14.17323 l -411.023619,0 c -7.0866192,0 -14.1732292959677,7.08662 -14.1732292959677,14.17323 l 0,216.14168 c 0,7.0866 7.0866100959677,14.1732 14.1732292959677,14.1732 l 301.181099,0 0,-21.2598 -294.094489,0 0,-201.96847 396.850399,0 0,201.96847 -42.51969,0 z"
       sodipodi:nodetypes="ccccccccccccccccc" />
    <path
       sodipodi:type="arc"
       style="opacity:0.90000000000000002;fill:none;stroke:#ff0000;stroke-width:0.35433070999999999;stroke-miterlimit:4;stroke-opacity:1;stroke-dasharray:none;stroke-dashoffset:0;display:inline"
       id="path3918-5"
       sodipodi:cx="203.74016"
       sodipodi:cy="721.06299"
       sodipodi:rx="5.3149605"
       sodipodi:ry="5.3149605"
       d="m 209.05512,721.06299 c 0,2.93537 -2.37959,5.31496 -5.31496,5.31496 -2.93537,0 -5.31496,-2.37959 -5.31496,-5.31496 0,-2.93537 2.37959,-5.31496 5.31496,-5.31496 2.93537,0 5.31496,2.37959 5.31496,5.31496 z"
       transform="translate(-186.02362,315.35431)" />
    <path
       sodipodi:type="arc"
       style="opacity:0.90000000000000002;fill:none;stroke:#ff0000;stroke-width:0.35433070999999999;stroke-miterlimit:4;stroke-opacity:1;stroke-dasharray:none;stroke-dashoffset:0;display:inline"
       id="path3918-4-8"
       sodipodi:cx="203.74016"
       sodipodi:cy="721.06299"
       sodipodi:rx="5.3149605"
       sodipodi:ry="5.3149605"
       d="m 209.05512,721.06299 c 0,2.93537 -2.37959,5.31496 -5.31496,5.31496 -2.93537,0 -5.31496,-2.37959 -5.31496,-5.31496 0,-2.93537 2.37959,-5.31496 5.31496,-5.31496 2.93537,0 5.31496,2.37959 5.31496,5.31496 z"
       transform="translate(217.91338,315.35431)" />
    <path
       sodipodi:type="arc"
       style="opacity:0.90000000000000002;fill:none;stroke:#ff0000;stroke-width:0.35433070999999999;stroke-miterlimit:4;stroke-opacity:1;stroke-dasharray:none;stroke-dashoffset:0;display:inline"
       id="path3918-4-2-4"
       sodipodi:cx="203.74016"
       sodipodi:cy="721.06299"
       sodipodi:rx="5.3149605"
       sodipodi:ry="5.3149605"
       d="m 209.05512,721.06299 c 0,2.93537 -2.37959,5.31496 -5.31496,5.31496 -2.93537,0 -5.31496,-2.37959 -5.31496,-5.31496 0,-2.93537 2.37959,-5.31496 5.31496,-5.31496 2.93537,0 5.31496,2.37959 5.31496,5.31496 z"
       transform="translate(217.91338,102.75588)" />
    <path
       sodipodi:type="arc"
       style="opacity:0.90000000000000002;fill:none;stroke:#ff0000;stroke-width:0.35433070999999999;stroke-miterlimit:4;stroke-opacity:1;stroke-dasharray:none;stroke-dashoffset:0;display:inline"
       id="path3918-4-2-9-2"
       sodipodi:cx="203.74016"
       sodipodi:cy="721.06299"
       sodipodi:rx="5.3149605"
       sodipodi:ry="5.3149605"
       d="m 209.05512,721.06299 c 0,2.93537 -2.37959,5.31496 -5.31496,5.31496 -2.93537,0 -5.31496,-2.37959 -5.31496,-5.31496 0,-2.93537 2.37959,-5.31496 5.31496,-5.31496 2.93537,0 5.31496,2.37959 5.31496,5.31496 z"
       transform="translate(-186.02362,102.75588)" />
    <path
       id="rect3608-4-2-6"
       style="opacity:0.90000000000000002;fill:none;stroke:#ff0000;stroke-width:0.35433070999999999;stroke-miterlimit:4;stroke-opacity:1;stroke-dashoffset:0;display:inline;stroke-dasharray:none"
       d="m 414.56693,641.33859 0,81.49606 -99.2126,-2e-5 0,-17.71653 -14.17323,2e-5 0,-63.77953 113.38583,0 z m -372.047244,-10.62994 0,-42.51969 0,-24.80315 -28.34646,0 c -7.0866192,0 -14.1732292959676,7.08662 -14.1732292959676,14.17323 l 0,216.14173 C -3.2959676e-6,800.78739 7.0866068,807.874 14.173226,807.874 l 301.181104,0 0,-74.40943 77.95276,-2e-5 0,49.6063 -17.71654,4e-5 0,24.80311 49.6063,0 c 7.08661,0 14.17323,-7.08661 14.17323,-14.17323 l 0,-216.14173 c 0,-7.08661 -7.08662,-14.17323 -14.17323,-14.17323 l -28.34646,0 0,67.32284 -116.92913,2e-5 0,-67.32286 -10.62992,0 0,67.32286 -226.771654,-2e-5 z m 262.204724,152.36222 0,-67.32285 -14.17323,2e-5 0,-74.40945 -265.748034,-0.0534 0,88.63605 21.25984,0 0,53.14961 258.661424,2e-5 z"
       sodipodi:nodetypes="cccccccccccccccccccccccccccccccccccccccc" />
    <path
       sodipodi:type="arc"
       style="opacity:0.90000000000000002;fill:none;stroke:#ff0000;stroke-width:0.35433070999999999;stroke-miterlimit:4;stroke-opacity:1;stroke-dasharray:none;stroke-dashoffset:0;display:inline"
       id="path3918"
       sodipodi:cx="203.74016"
       sodipodi:cy="721.06299"
       sodipodi:rx="5.3149605"
       sodipodi:ry="5.3149605"
       d="m 209.05512,721.06299 c 0,2.93537 -2.37959,5.31496 -5.31496,5.31496 -2.93537,0 -5.31496,-2.37959 -5.31496,-5.31496 0,-2.93537 2.37959,-5.31496 5.31496,-5.31496 2.93537,0 5.31496,2.37959 5.31496,5.31496 z"
       transform="translate(-186.02362,70.866124)" />
    <path
       sodipodi:type="arc"
       style="opacity:0.90000000000000002;fill:none;stroke:#ff0000;stroke-width:0.35433070999999999;stroke-miterlimit:4;stroke-opacity:1;stroke-dasharray:none;stroke-dashoffset:0;display:inline"
       id="path3918-4"
       sodipodi:cx="203.74016"
       sodipodi:cy="721.06299"
       sodipodi:rx="5.3149605"
       sodipodi:ry="5.3149605"
       d="m 209.05512,721.06299 c 0,2.93537 -2.37959,5.31496 -5.31496,5.31496 -2.93537,0 -5.31496,-2.37959 -5.31496,-5.31496 0,-2.93537 2.37959,-5.31496 5.31496,-5.31496 2.93537,0 5.31496,2.37959 5.31496,5.31496 z"
       transform="translate(217.91339,70.866124)" />
    <path
       sodipodi:type="arc"
       style="opacity:0.90000000000000002;fill:none;stroke:#ff0000;stroke-width:0.35433070999999999;stroke-miterlimit:4;stroke-opacity:1;stroke-dasharray:none;stroke-dashoffset:0;display:inline"
       id="path3918-4-2"
       sodipodi:cx="203.74016"
       sodipodi:cy="721.06299"
       sodipodi:rx="5.3149605"
       sodipodi:ry="5.3149605"
       d="m 209.05512,721.06299 c 0,2.93537 -2.37959,5.31496 -5.31496,5.31496 -2.93537,0 -5.31496,-2.37959 -5.31496,-5.31496 0,-2.93537 2.37959,-5.31496 5.31496,-5.31496 2.93537,0 5.31496,2.37959 5.31496,5.31496 z"
       transform="translate(217.91339,-141.73231)" />
    <path
       sodipodi:type="arc"
       style="opacity:0.90000000000000002;fill:none;stroke:#ff0000;stroke-width:0.35433070999999999;stroke-miterlimit:4;stroke-opacity:1;stroke-dasharray:none;stroke-dashoffset:0;display:inline"
       id="path3918-4-2-9"
       sodipodi:cx="203.74016"
       sodipodi:cy="721.06299"
       sodipodi:rx="5.3149605"
       sodipodi:ry="5.3149605"
       d="m 209.05512,721.06299 c 0,2.93537 -2.37959,5.31496 -5.31496,5.31496 -2.93537,0 -5.31496,-2.37959 -5.31496,-5.31496 0,-2.93537 2.37959,-5.31496 5.31496,-5.31496 2.93537,0 5.31496,2.37959 5.31496,5.31496 z"
       transform="translate(-186.02362,-141.73231)" />
    <path
       id="rect3608-4-2-6-0"
       style="opacity:0.90000000000000002;fill:none;stroke:#ff0000;stroke-width:0.35433070999999999;stroke-miterlimit:4;stroke-opacity:1;stroke-dashoffset:0;display:inline;stroke-dasharray:none"
       d="m 853.93701,885.82677 0,81.49606 -99.2126,-2e-5 0,-17.71653 -14.17323,2e-5 0,-63.77953 113.38583,0 z m -372.04724,-10.62994 0,-42.51969 0,-24.80315 -28.34646,0 c -7.08662,0 -14.17323,7.08662 -14.17323,14.17323 l 0,216.14168 c 0,7.0867 7.08661,14.1733 14.17323,14.1733 l 301.1811,0 0,-74.40945 77.95276,-2e-5 0,49.60627 -17.71654,10e-5 0,24.8031 49.6063,0 c 7.08661,0 14.17323,-7.0866 14.17323,-14.1733 l 0,-216.14168 c 0,-7.08661 -7.08662,-14.17323 -14.17323,-14.17323 l -28.34646,0 0,67.32284 -116.92913,2e-5 0,-67.32286 -10.62992,0 0,67.32286 -226.77165,-2e-5 z m 262.20472,152.36217 0,-67.3228 -14.17323,2e-5 0,-74.40945 -265.74803,-0.0534 0,88.63605 21.25984,0 0,53.14958 258.66142,0 z"
       sodipodi:nodetypes="cccccccccccccccccccccccccccccccccccccccc" />
    <path
       sodipodi:type="arc"
       style="opacity:0.90000000000000002;fill:none;stroke:#ff0000;stroke-width:0.35433070999999999;stroke-miterlimit:4;stroke-opacity:1;stroke-dasharray:none;stroke-dashoffset:0;display:inline"
       id="path3918-6"
       sodipodi:cx="203.74016"
       sodipodi:cy="721.06299"
       sodipodi:rx="5.3149605"
       sodipodi:ry="5.3149605"
       d="m 209.05512,721.06299 c 0,2.93537 -2.37959,5.31496 -5.31496,5.31496 -2.93537,0 -5.31496,-2.37959 -5.31496,-5.31496 0,-2.93537 2.37959,-5.31496 5.31496,-5.31496 2.93537,0 5.31496,2.37959 5.31496,5.31496 z"
       transform="translate(253.34646,315.35431)" />
    <path
       sodipodi:type="arc"
       style="opacity:0.90000000000000002;fill:none;stroke:#ff0000;stroke-width:0.35433070999999999;stroke-miterlimit:4;stroke-opacity:1;stroke-dasharray:none;stroke-dashoffset:0;display:inline"
       id="path3918-4-5"
       sodipodi:cx="203.74016"
       sodipodi:cy="721.06299"
       sodipodi:rx="5.3149605"
       sodipodi:ry="5.3149605"
       d="m 209.05512,721.06299 c 0,2.93537 -2.37959,5.31496 -5.31496,5.31496 -2.93537,0 -5.31496,-2.37959 -5.31496,-5.31496 0,-2.93537 2.37959,-5.31496 5.31496,-5.31496 2.93537,0 5.31496,2.37959 5.31496,5.31496 z"
       transform="translate(657.28347,315.35431)" />
    <path
       sodipodi:type="arc"
       style="opacity:0.90000000000000002;fill:none;stroke:#ff0000;stroke-width:0.35433070999999999;stroke-miterlimit:4;stroke-opacity:1;stroke-dasharray:none;stroke-dashoffset:0;display:inline"
       id="path3918-4-2-0"
       sodipodi:cx="203.74016"
       sodipodi:cy="721.06299"
       sodipodi:rx="5.3149605"
       sodipodi:ry="5.3149605"
       d="m 209.05512,721.06299 c 0,2.93537 -2.37959,5.31496 -5.31496,5.31496 -2.93537,0 -5.31496,-2.37959 -5.31496,-5.31496 0,-2.93537 2.37959,-5.31496 5.31496,-5.31496 2.93537,0 5.31496,2.37959 5.31496,5.31496 z"
       transform="translate(657.28347,102.75588)" />
    <path
       sodipodi:type="arc"
       style="opacity:0.90000000000000002;fill:none;stroke:#ff0000;stroke-width:0.35433070999999999;stroke-miterlimit:4;stroke-opacity:1;stroke-dasharray:none;stroke-dashoffset:0;display:inline"
       id="path3918-4-2-9-7"
       sodipodi:cx="203.74016"
       sodipodi:cy="721.06299"
       sodipodi:rx="5.3149605"
       sodipodi:ry="5.3149605"
       d="m 209.05512,721.06299 c 0,2.93537 -2.37959,5.31496 -5.31496,5.31496 -2.93537,0 -5.31496,-2.37959 -5.31496,-5.31496 0,-2.93537 2.37959,-5.31496 5.31496,-5.31496 2.93537,0 5.31496,2.37959 5.31496,5.31496 z"
       transform="translate(253.34646,102.75588)" />
    <path
       id="rect3608-4-2-6-09"
       style="opacity:0.90000000000000002;fill:none;stroke:#ff0000;stroke-width:0.35433070999999999;stroke-miterlimit:4;stroke-opacity:1;stroke-dashoffset:0;display:inline;stroke-dasharray:none"
       d="m 853.93701,641.33858 0,81.49606 -99.2126,-2e-5 0,-17.71653 -14.17323,2e-5 0,-63.77953 113.38583,0 z m -372.04724,-10.62994 0,-42.51969 0,-24.80315 -28.34646,0 c -7.08662,0 -14.17323,7.08662 -14.17323,14.17323 l 0,216.14173 c 0,7.08662 7.08661,14.17323 14.17323,14.17323 l 301.1811,0 0,-74.40943 77.95276,-2e-5 0,49.6063 -17.71654,4e-5 0,24.80311 49.6063,0 c 7.08661,0 14.17323,-7.08661 14.17323,-14.17323 l 0,-216.14173 c 0,-7.08661 -7.08662,-14.17323 -14.17323,-14.17323 l -28.34646,0 0,67.32284 -116.92913,2e-5 0,-67.32286 -10.62992,0 0,67.32286 -226.77165,-2e-5 z m 262.20472,152.36222 0,-67.32285 -14.17323,2e-5 0,-74.40945 -265.74803,-0.0534 0,88.63605 21.25984,0 0,53.14961 258.66142,2e-5 z"
       sodipodi:nodetypes="cccccccccccccccccccccccccccccccccccccccc" />
    <path
       sodipodi:type="arc"
       style="opacity:0.90000000000000002;fill:none;stroke:#ff0000;stroke-width:0.35433070999999999;stroke-miterlimit:4;stroke-opacity:1;stroke-dasharray:none;stroke-dashoffset:0;display:inline"
       id="path3918-2"
       sodipodi:cx="203.74016"
       sodipodi:cy="721.06299"
       sodipodi:rx="5.3149605"
       sodipodi:ry="5.3149605"
       d="m 209.05512,721.06299 c 0,2.93537 -2.37959,5.31496 -5.31496,5.31496 -2.93537,0 -5.31496,-2.37959 -5.31496,-5.31496 0,-2.93537 2.37959,-5.31496 5.31496,-5.31496 2.93537,0 5.31496,2.37959 5.31496,5.31496 z"
       transform="translate(253.34646,70.866124)" />
    <path
       sodipodi:type="arc"
       style="opacity:0.90000000000000002;fill:none;stroke:#ff0000;stroke-width:0.35433070999999999;stroke-miterlimit:4;stroke-opacity:1;stroke-dasharray:none;stroke-dashoffset:0;display:inline"
       id="path3918-4-3"
       sodipodi:cx="203.74016"
       sodipodi:cy="721.06299"
       sodipodi:rx="5.3149605"
       sodipodi:ry="5.3149605"
       d="m 209.05512,721.06299 c 0,2.93537 -2.37959,5.31496 -5.31496,5.31496 -2.93537,0 -5.31496,-2.37959 -5.31496,-5.31496 0,-2.93537 2.37959,-5.31496 5.31496,-5.31496 2.93537,0 5.31496,2.37959 5.31496,5.31496 z"
       transform="translate(657.28347,70.866124)" />
    <path
       sodipodi:type="arc"
       style="opacity:0.90000000000000002;fill:none;stroke:#ff0000;stroke-width:0.35433070999999999;stroke-miterlimit:4;stroke-opacity:1;stroke-dasharray:none;stroke-dashoffset:0;display:inline"
       id="path3918-4-2-93"
       sodipodi:cx="203.74016"
       sodipodi:cy="721.06299"
       sodipodi:rx="5.3149605"
       sodipodi:ry="5.3149605"
       d="m 209.05512,721.06299 c 0,2.93537 -2.37959,5.31496 -5.31496,5.31496 -2.93537,0 -5.31496,-2.37959 -5.31496,-5.31496 0,-2.93537 2.37959,-5.31496 5.31496,-5.31496 2.93537,0 5.31496,2.37959 5.31496,5.31496 z"
       transform="translate(657.28347,-141.73231)" />
    <path
       sodipodi:type="arc"
       style="opacity:0.90000000000000002;fill:none;stroke:#ff0000;stroke-width:0.35433070999999999;stroke-miterlimit:4;stroke-opacity:1;stroke-dasharray:none;stroke-dashoffset:0;display:inline"
       id="path3918-4-2-9-4"
       sodipodi:cx="203.74016"
       sodipodi:cy="721.06299"
       sodipodi:rx="5.3149605"
       sodipodi:ry="5.3149605"
       d="m 209.05512,721.06299 c 0,2.93537 -2.37959,5.31496 -5.31496,5.31496 -2.93537,0 -5.31496,-2.37959 -5.31496,-5.31496 0,-2.93537 2.37959,-5.31496 5.31496,-5.31496 2.93537,0 5.31496,2.37959 5.31496,5.31496 z"
       transform="translate(253.34646,-141.73231)" />
  </g>
</svg>
